<svg width="300" height="126" viewBox="0 0 300 126" fill="none" xmlns="http://www.w3.org/2000/svg">
<path d="M189.408 30.9771H179.393V87.0073C188.495 87.3206 197.559 87.7804 206.585 88.3821V78.5104C200.875 78.1294 195.15 77.807 189.408 77.5393V30.9771ZM269 30.9829H257.998L250.747 47.7971L244.232 30.9829H233.395L245.04 61.0274L232.328 90.502C235.845 90.8452 239.352 91.2112 242.855 91.598L250.248 74.4602L257.57 93.3519C261.383 93.8423 265.187 94.3541 268.983 94.8966L269 94.8901L255.953 61.2306L269 30.9829ZM145.014 86.5176L155.03 86.5156V63.7242H168.607V53.8525H155.03V40.9439H172.973V30.9836H145.014V86.5176ZM107.615 40.9432H118.097V87.1044C121.43 86.9787 124.769 86.8751 128.112 86.7878V40.9432H138.594V30.9829H107.615V40.9432ZM73.3744 89.9738C82.6055 89.135 91.8789 88.4433 101.194 87.9067V78.0336C95.2422 78.3782 89.3073 78.7852 83.39 79.2508V64.3058C87.2728 64.2674 92.3854 64.1488 96.9147 64.2048V54.3324C93.2962 54.324 87.4805 54.3832 83.39 54.4353V40.9439H101.194V30.9836H73.3744V89.9738ZM53.7285 67.1524L40.6842 30.9829H31.166V94.8979C34.498 94.4232 37.8366 93.9693 41.1816 93.5329V58.7766L52.7799 92.106C56.4277 91.6827 60.082 91.2822 63.7441 90.9051V30.9829H53.7285V67.1524ZM214.842 88.9767C218.185 89.2327 221.523 89.5068 224.858 89.8038V30.9829H214.842V88.9767Z" fill="#E50914"/>
</svg>
