<svg width="47" height="47" viewBox="0 0 47 47" fill="none" xmlns="http://www.w3.org/2000/svg">
<path d="M5.0525 37.2279L5.01334 37.2671C4.48459 36.1117 4.15167 34.7996 4.01459 33.3504C4.15167 34.78 4.52375 36.0725 5.0525 37.2279Z" fill="white"/>
<path d="M17.625 20.3275C20.1991 20.3275 22.2858 18.2408 22.2858 15.6667C22.2858 13.0926 20.1991 11.0059 17.625 11.0059C15.0509 11.0059 12.9642 13.0926 12.9642 15.6667C12.9642 18.2408 15.0509 20.3275 17.625 20.3275Z" fill="white"/>
<path d="M31.7054 3.91669H15.2946C8.16627 3.91669 3.91669 8.16627 3.91669 15.2946V31.7054C3.91669 33.84 4.28877 35.7004 5.01335 37.2671C6.69752 40.9879 10.3009 43.0834 15.2946 43.0834H31.7054C38.8338 43.0834 43.0834 38.8338 43.0834 31.7054V27.2209V15.2946C43.0834 8.16627 38.8338 3.91669 31.7054 3.91669ZM39.8913 24.4792C38.3638 23.1671 35.8963 23.1671 34.3688 24.4792L26.2221 31.4704C24.6946 32.7825 22.2271 32.7825 20.6996 31.4704L20.0338 30.9221C18.6434 29.7079 16.4304 29.5904 14.8638 30.6479L7.5396 35.5634C7.10877 34.4667 6.85419 33.1938 6.85419 31.7054V15.2946C6.85419 9.7721 9.7721 6.85419 15.2946 6.85419H31.7054C37.2279 6.85419 40.1459 9.7721 40.1459 15.2946V24.6946L39.8913 24.4792Z" fill="white"/>
</svg>
