<svg width="348" height="348" viewBox="0 0 348 348" fill="none" xmlns="http://www.w3.org/2000/svg">
<path d="M37.41 275.645L37.12 275.935C33.205 267.38 30.74 257.665 29.725 246.935C30.74 257.52 33.495 267.09 37.41 275.645Z" fill="white"/>
<path d="M130.5 150.51C149.559 150.51 165.01 135.059 165.01 116C165.01 96.9406 149.559 81.49 130.5 81.49C111.441 81.49 95.99 96.9406 95.99 116C95.99 135.059 111.441 150.51 130.5 150.51Z" fill="white"/>
<path d="M234.755 29H113.245C60.465 29 29 60.465 29 113.245V234.755C29 250.56 31.755 264.335 37.12 275.935C49.59 303.485 76.27 319 113.245 319H234.755C287.535 319 319 287.535 319 234.755V201.55V113.245C319 60.465 287.535 29 234.755 29ZM295.365 181.25C284.055 171.535 265.785 171.535 254.475 181.25L194.155 233.015C182.845 242.73 164.575 242.73 153.265 233.015L148.335 228.955C138.04 219.965 121.655 219.095 110.055 226.925L55.825 263.32C52.635 255.2 50.75 245.775 50.75 234.755V113.245C50.75 72.355 72.355 50.75 113.245 50.75H234.755C275.645 50.75 297.25 72.355 297.25 113.245V182.845L295.365 181.25Z" fill="white"/>
</svg>
