<svg width="447" height="385" viewBox="0 0 447 385" fill="none" xmlns="http://www.w3.org/2000/svg">
<path d="M151.972 383.59C145.668 385.744 138.464 381.475 135.958 374.071L96.959 259.81L119.747 252.015L158.785 366.433C161.291 373.758 158.237 381.436 151.972 383.59Z" fill="black"/>
<path d="M148.565 385C146.725 385 144.845 384.569 143.044 383.668C139.403 381.866 136.505 378.498 135.096 374.345L96.0971 260.084C95.9405 259.653 96.1755 259.144 96.6453 258.987L119.434 251.192C119.669 251.113 119.904 251.113 120.099 251.231C120.295 251.348 120.452 251.505 120.53 251.74L159.568 366.159C162.191 373.914 158.902 382.101 152.207 384.412C151.071 384.804 149.818 385 148.565 385ZM98.0549 260.358L136.779 373.797C138.032 377.518 140.617 380.574 143.827 382.14C146.412 383.394 149.192 383.629 151.698 382.767C157.493 380.769 160.312 373.562 157.962 366.707L119.199 253.111L98.0549 260.358Z" fill="black"/>
<path d="M115.714 153.382L41.9843 205.988L13.2835 235.798L2.00679 255.736L1.96763 255.892C-0.264217 259.339 1.02791 267.291 5.21752 275.399C9.32882 283.39 15.1238 288.953 19.1959 289.266L19.0785 289.344L40.7313 291.695L81.257 285.231L167.281 254.443L274.214 272.775L274.958 272.814C248.097 267.8 211.84 231.88 185.488 181.076C159.176 130.31 150.797 80.132 162.347 55.376H162.308L116.301 152.128L115.714 153.382Z" fill="#B9FF66"/>
<path d="M292.729 270.603C319.157 256.873 314.046 194.629 281.315 131.577C248.584 68.5247 200.626 28.5412 174.199 42.2711C147.771 56.001 152.882 118.245 185.613 181.297C218.344 244.349 266.302 284.333 292.729 270.603Z" fill="white"/>
<path d="M281.106 274.185C269.594 274.185 255.733 267.761 240.815 255.266C220.494 238.266 200.564 212.06 184.706 181.428C160.704 135.05 150.797 87.4964 159.49 60.2726C162.387 51.1849 167.243 44.8392 173.86 41.4313C187.016 34.6939 205.536 40.4129 226.054 57.5698C246.375 74.57 266.305 100.775 282.163 131.407C306.204 177.786 316.111 225.339 307.379 252.563C304.482 261.651 299.626 267.996 293.009 271.404C289.446 273.284 285.452 274.185 281.106 274.185ZM185.841 40.4129C181.808 40.4129 178.049 41.2355 174.682 42.9982C168.456 46.171 163.914 52.2033 161.173 60.8601C152.598 87.6922 162.466 134.737 186.272 180.723C218.693 243.279 266.227 283.312 292.265 269.955C298.491 266.782 303.033 260.75 305.774 252.093C314.349 225.261 304.482 178.216 280.675 132.23C252.444 77.782 212.819 40.4129 185.841 40.4129Z" fill="black"/>
<path d="M281.106 274.185C269.594 274.185 255.733 267.761 240.815 255.266C220.494 238.265 200.564 212.06 184.706 181.428C160.704 135.05 150.797 87.4963 159.49 60.2725C162.387 51.1848 167.243 44.8391 173.86 41.4312C182.67 36.8874 194.181 38.0234 207.142 44.6824C219.554 51.0673 232.984 62.3877 246.062 77.3902C246.375 77.7427 246.336 78.2911 245.984 78.6045C245.631 78.9179 245.083 78.8787 244.77 78.5262C218.223 48.0511 191.362 34.4196 174.682 42.9981C168.456 46.1709 163.914 52.2033 161.173 60.86C152.598 87.6922 162.466 134.737 186.272 180.723C214.464 235.132 254.128 272.54 281.067 272.54C285.1 272.54 288.859 271.717 292.226 269.955C298.452 266.782 302.994 260.75 305.735 252.093C314.31 225.261 304.442 178.216 280.636 132.23C273.549 118.52 265.561 105.632 256.986 93.9204C256.712 93.5286 256.791 92.9803 257.182 92.7061C257.574 92.4319 258.122 92.5102 258.396 92.9019C267.049 104.692 275.037 117.658 282.202 131.446C306.204 177.785 316.111 225.339 307.379 252.563C304.482 261.65 299.626 267.996 293.009 271.404C289.446 273.284 285.452 274.185 281.106 274.185Z" fill="black"/>
<path d="M232.766 190.339C238.889 187.158 237.711 172.751 230.136 158.159C222.561 143.567 211.458 134.316 205.335 137.497C199.213 140.678 200.391 155.085 207.965 169.677C215.54 184.269 226.644 193.52 232.766 190.339Z" fill="#B9FF66"/>
<path d="M230.087 191.848C223.352 191.848 213.955 183.152 207.181 170.03C201.543 159.14 199.233 147.937 201.308 141.474C202.052 139.202 203.266 137.596 204.949 136.734C211.606 133.326 223 142.61 230.909 157.847C236.548 168.737 238.858 179.94 236.782 186.403C236.039 188.675 234.825 190.281 233.141 191.143C232.201 191.613 231.183 191.848 230.087 191.848ZM208.003 137.714C207.181 137.714 206.398 137.87 205.732 138.223C204.44 138.889 203.501 140.142 202.913 141.983C200.995 148.016 203.226 158.748 208.669 169.246C215.874 183.152 226.72 192.514 232.319 189.615C233.611 188.949 234.551 187.696 235.138 185.855C237.057 179.783 234.786 169.09 229.382 158.592C223.039 146.41 213.955 137.714 208.003 137.714Z" fill="#B9FF66"/>
<path d="M275.155 259.574C265.053 259.574 252.914 253.934 239.837 243.005C222.06 228.12 204.597 205.166 190.736 178.373C169.71 137.792 161.056 96.153 168.652 72.2978C171.197 64.307 175.465 58.7447 181.3 55.7285C194.691 48.8736 214.386 56.7861 235.373 77.4292C235.725 77.7818 235.725 78.291 235.373 78.6435C235.021 78.9961 234.512 78.9961 234.159 78.6435C213.72 58.5488 194.73 50.7146 182.083 57.2562C176.679 60.0373 172.725 65.2471 170.297 72.8071C162.818 96.2313 171.432 137.361 192.263 177.589C216.892 225.182 251.544 257.851 275.115 257.851C278.639 257.851 281.889 257.107 284.865 255.618C290.269 252.837 294.223 247.627 296.651 240.067C304.13 216.643 295.515 175.513 274.685 135.285C268.381 123.142 261.333 111.743 253.737 101.441C253.463 101.049 253.541 100.501 253.933 100.227C254.324 99.9526 254.872 100.031 255.146 100.423C262.821 110.842 269.908 122.28 276.251 134.501C297.277 175.082 305.931 216.721 298.335 240.576C295.789 248.567 291.522 254.13 285.687 257.146C282.477 258.752 278.953 259.574 275.155 259.574Z" fill="black"/>
<path d="M40.7713 292.517C40.7321 292.517 40.6929 292.517 40.6929 292.517L19.0401 290.167C18.9226 290.167 18.8052 290.128 18.6877 290.05C14.224 289.344 8.58565 283.704 4.47435 275.791C0.0889648 267.448 -1.20316 259.3 1.18531 255.462L1.22447 255.344L12.5012 235.367C12.5403 235.289 12.5795 235.249 12.6186 235.21L41.3194 205.401C41.3586 205.362 41.3977 205.323 41.4369 205.284L114.97 152.794L161.487 54.9845C161.604 54.7886 161.761 54.632 161.996 54.5536C162.231 54.4753 162.466 54.4753 162.662 54.5928C163.092 54.7886 163.288 55.2979 163.092 55.7288C151.306 80.994 160.625 131.211 186.233 180.645C211.88 230.157 247.628 266.821 275.155 271.874C275.585 271.953 275.898 272.344 275.859 272.814C275.82 273.245 275.429 273.559 274.998 273.598L274.254 273.559C274.215 273.559 274.176 273.559 274.136 273.559L167.399 255.266L81.571 285.976C81.5319 285.976 81.4535 286.015 81.4144 286.015L40.8887 292.478C40.8496 292.517 40.8104 292.517 40.7713 292.517ZM19.6666 288.522L40.7713 290.794L81.1012 284.331L167.086 253.581C167.243 253.542 167.36 253.503 167.517 253.542L263.604 269.994C237.644 258.595 207.298 224.947 184.784 181.468C162.427 138.301 152.442 94.4689 157.924 66.775L116.497 153.735C116.419 153.852 116.341 153.97 116.223 154.048L42.5724 206.655L13.9891 236.307L2.71237 256.284C2.71237 256.323 2.67321 256.363 2.67321 256.363C0.637138 259.535 2.00757 267.37 5.96225 275.008C9.83862 282.49 15.4378 288.13 19.275 288.404C19.4317 288.404 19.5491 288.444 19.6666 288.522Z" fill="black"/>
<path d="M115.83 153.069L162.308 55.3369H162.347C150.796 80.093 159.214 130.271 185.487 181.037C211.839 231.881 248.097 267.8 275.035 272.736L274.292 272.697L167.515 254.404L165.048 253.973C152.636 251.779 136.074 235.641 124.209 212.608C112.032 188.988 109.879 165.447 115.282 154.244L115.83 153.069Z" fill="white"/>
<path d="M275.036 273.598C274.997 273.598 275.036 273.598 275.036 273.598L274.253 273.558C274.214 273.558 274.174 273.558 274.135 273.558L167.359 255.266L164.892 254.835C151.775 252.524 135.134 235.719 123.427 213.039C110.153 187.265 109.487 164.311 114.499 153.891L115.087 152.716L161.564 55.0236C161.681 54.8277 161.838 54.671 162.073 54.5927C162.308 54.5143 162.543 54.5143 162.739 54.6319C163.169 54.8277 163.365 55.3369 163.169 55.7678C151.384 81.0331 160.702 131.25 186.31 180.684C211.957 230.196 247.705 266.86 275.232 271.913C275.662 271.992 275.976 272.383 275.936 272.853C275.819 273.245 275.467 273.598 275.036 273.598ZM157.844 66.7749L116.614 153.46L116.026 154.635C111.054 164.977 112.502 188.087 124.954 212.217C136.426 234.466 152.597 250.918 165.205 253.111L167.672 253.542L263.563 269.994C237.603 258.595 207.258 224.947 184.744 181.467C162.386 138.301 152.402 94.4687 157.844 66.7749Z" fill="black"/>
<path d="M39.5961 292.4C39.5569 292.4 39.5178 292.4 39.5178 292.4L19.0004 290.206C18.883 290.206 18.7655 290.167 18.648 290.089C14.1844 289.384 8.546 283.743 4.4347 275.831C0.0884658 267.448 -1.20366 259.3 1.18481 255.462L1.22397 255.344L12.5007 235.367C12.7356 234.936 13.2446 234.819 13.6753 235.054C14.106 235.289 14.2235 235.798 13.9886 236.229L2.71187 256.284C2.71187 256.323 2.67271 256.363 2.67271 256.363C0.636639 259.535 2.00707 267.37 5.96175 275.008C9.83812 282.49 15.4373 288.13 19.2745 288.404C19.392 288.404 19.5486 288.444 19.6269 288.522L39.6744 290.676C40.1443 290.716 40.4967 291.146 40.4184 291.616C40.3792 292.047 40.0268 292.4 39.5961 292.4Z" fill="black"/>
<path d="M40.9662 291.538C34.3099 291.068 24.9909 281.628 18.2171 268.584C11.0516 254.756 9.36797 240.459 13.7534 235.367L2.04594 255.736L1.96763 255.892C-0.264217 259.339 1.02791 267.291 5.21752 275.399C9.32882 283.39 15.1238 288.953 19.1959 289.266L19.0785 289.344L40.9662 291.538Z" fill="white"/>
<path d="M40.9665 292.4C40.9274 292.4 40.9274 292.4 40.8882 292.4C40.7316 292.4 40.5358 292.36 40.3792 292.36L19.0004 290.206C18.883 290.206 18.7655 290.167 18.648 290.088C14.1844 289.383 8.546 283.743 4.4347 275.83C0.0884658 267.448 -1.20366 259.3 1.18481 255.461L1.22397 255.344L11.5218 237.404C11.9133 236.385 12.4224 235.484 13.0488 234.74C13.3229 234.387 13.832 234.348 14.1844 234.583C14.5367 234.857 14.6542 235.327 14.4193 235.719L12.9705 238.187C10.6604 244.415 12.9314 256.636 18.883 268.074C25.3436 280.57 34.1535 289.697 40.4575 290.519L40.9274 290.559C41.3972 290.598 41.7496 291.029 41.7105 291.499C41.7496 292.047 41.3972 292.4 40.9665 292.4ZM19.6269 288.522L34.5842 290.049C28.8284 286.367 22.4853 278.768 17.4342 268.975C12.5398 259.535 10.1122 249.742 10.5038 242.692L2.71187 256.284C2.71187 256.323 2.67271 256.362 2.67271 256.362C0.636639 259.535 2.00707 267.369 5.96175 275.008C9.83812 282.489 15.4373 288.13 19.2745 288.404C19.392 288.404 19.5486 288.443 19.6269 288.522Z" fill="black"/>
<path d="M79.8079 285.388L81.5307 285.035C72.2118 286.994 57.4894 272.892 47.1132 252.876C36.5022 232.429 34.5053 212.021 42.0231 205.988L41.0442 206.968L13.8313 235.249C9.36759 240.263 11.0121 254.639 18.2167 268.544C25.1472 281.941 34.9751 291.499 41.6707 291.459L79.8079 285.388Z" fill="black"/>
<path d="M41.6323 292.36C34.5061 292.36 24.5998 282.764 17.4344 268.975C10.1515 254.874 8.3112 240.146 13.1664 234.701L39.8703 206.968C40.3402 206.341 40.8884 205.793 41.4757 205.323C41.8281 205.048 42.3371 205.088 42.6503 205.401C42.9636 205.753 42.9636 206.263 42.6503 206.576L41.1233 208.182C35.6807 215.468 38.3824 234.113 47.8971 252.484C58.1558 272.305 72.4866 285.897 81.2574 284.252L81.3749 284.213C81.8447 284.135 82.2754 284.409 82.3929 284.879C82.4712 285.349 82.1971 285.78 81.7273 285.897C81.6881 285.897 81.649 285.897 81.6098 285.936L80.0044 286.25H79.9653L41.8281 292.321C41.7498 292.321 41.6715 292.36 41.6323 292.36ZM37.5993 211.825L14.4586 235.876C10.1515 240.733 12.1093 254.913 19.0006 268.192C25.7353 281.197 35.25 290.598 41.6323 290.637L75.3058 285.27C66.2218 282.058 55.0234 269.955 46.3701 253.307C38.1475 237.443 34.9759 221.304 37.5993 211.825Z" fill="black"/>
<path d="M205.341 137.479C199.194 140.612 200.094 155.145 207.925 169.638C221.042 193.885 231.497 191.025 232.711 190.594C232.75 190.594 232.75 190.634 232.711 190.634L210.196 208.77C203.579 199.486 197.275 189.145 191.48 177.981C185.959 167.288 181.3 156.633 177.619 146.292L205.341 137.479Z" fill="black"/>
<path d="M210.196 209.631C210.157 209.631 210.118 209.631 210.079 209.631C209.844 209.592 209.648 209.475 209.491 209.279C202.717 199.76 196.413 189.341 190.736 178.412C185.293 167.914 180.595 157.221 176.836 146.645C176.758 146.41 176.758 146.174 176.875 145.979C176.992 145.783 177.149 145.626 177.384 145.548L205.106 136.734C205.537 136.617 206.006 136.813 206.163 137.243C206.32 137.674 206.163 138.144 205.772 138.34C204.44 139.006 203.461 140.338 202.874 142.297C200.955 148.446 203.305 159.336 208.747 169.325C221.551 192.984 231.418 190.281 232.475 189.889C232.867 189.733 233.337 189.928 233.533 190.281C233.728 190.634 233.65 191.143 233.337 191.417L210.744 209.436C210.588 209.553 210.392 209.631 210.196 209.631ZM178.754 146.84C182.474 157.064 187.016 167.405 192.263 177.59C197.745 188.166 203.853 198.233 210.392 207.516L229.93 191.77C225.467 191.574 217.048 188.244 207.181 170.03C201.464 159.493 199.115 148.368 201.19 141.67C201.464 140.808 201.778 140.064 202.169 139.359L178.754 146.84Z" fill="black"/>
<path d="M321.186 81.5974C339.086 72.1937 346.01 50.1159 336.65 32.2852C327.29 14.4545 305.192 7.62311 287.292 17.0268C269.392 26.4305 262.468 48.5083 271.828 66.339C281.188 84.1697 303.286 91.0011 321.186 81.5974Z" fill="black"/>
<path d="M287.567 41.2352C289.29 38.8849 291.835 37.4356 294.733 37.1223C296.925 36.8872 298.961 37.3573 300.88 38.5324C301.859 39.12 302.72 39.8642 303.543 40.7652C304.13 39.7075 304.835 38.7674 305.657 37.984C307.262 36.4172 309.181 35.5162 311.334 35.2812C314.232 34.9678 317.051 35.8296 319.244 37.749C321.397 39.6292 322.768 42.3712 323.12 45.4657C323.473 48.6385 322.611 51.6939 320.418 55.0626C318.461 58.0787 315.485 61.2124 312.039 64.8945C310.865 66.1479 309.533 67.5581 308.163 69.0466C307.81 69.4383 307.301 69.7125 306.753 69.7517C306.205 69.83 305.696 69.6733 305.226 69.36C303.543 68.1848 301.937 67.0881 300.528 66.1479C296.377 63.3276 292.775 60.899 290.191 58.3921C287.293 55.611 285.805 52.7906 285.453 49.6178C285.14 46.5233 285.884 43.5463 287.567 41.2352Z" fill="white"/>
<path d="M422.735 83.5925C435.839 70.4829 435.839 49.2281 422.735 36.1185C409.631 23.0089 388.385 23.0089 375.28 36.1185C362.176 49.228 362.176 70.4829 375.28 83.5925C388.385 96.7021 409.631 96.7021 422.735 83.5925Z" fill="#B9FF66"/>
<path d="M399.001 94.2732C380.05 94.2732 364.584 78.8399 364.584 59.8419C364.584 40.8832 380.011 25.4106 399.001 25.4106C417.992 25.4106 433.419 40.844 433.419 59.8419C433.419 78.8007 417.992 94.2732 399.001 94.2732ZM399.001 27.1342C380.99 27.1342 366.307 41.7841 366.307 59.8419C366.307 77.8606 380.951 92.5497 399.001 92.5497C417.013 92.5497 431.696 77.8998 431.696 59.8419C431.696 41.8233 417.052 27.1342 399.001 27.1342Z" fill="#B9FF66"/>
<path d="M408.085 63.1713C406.206 63.1713 404.561 64.0723 403.465 65.4824L392.149 61.0561C392.149 60.8994 392.188 60.7819 392.188 60.6252C392.188 60.351 392.149 60.0768 392.11 59.8026L403.7 54.4362C404.757 55.6505 406.323 56.4339 408.085 56.4731C411.296 56.4731 413.958 53.8486 413.958 50.5974C413.958 47.3462 411.335 44.6826 408.085 44.6826C404.874 44.6826 402.212 47.3071 402.212 50.5583C402.212 50.8325 402.251 51.1067 402.29 51.3809L390.7 56.7473C389.643 55.533 388.077 54.7496 386.315 54.7104C383.104 54.7104 380.441 57.3348 380.441 60.586C380.441 63.8372 383.065 66.5009 386.315 66.5009C388.194 66.5009 389.839 65.5999 390.935 64.1898L402.251 68.6161C402.251 68.7728 402.212 68.8903 402.212 69.047C402.212 72.2982 404.835 74.9618 408.085 74.9618C411.296 74.9618 413.958 72.3373 413.958 69.0861C413.919 65.8349 411.296 63.2105 408.085 63.1713Z" fill="black"/>
<path d="M408.53 189.993C423.896 179.322 427.757 158.283 417.153 142.999C406.548 127.715 385.495 123.975 370.128 134.645C354.762 145.315 350.901 166.355 361.505 181.639C372.11 196.923 393.163 200.663 408.53 189.993Z" fill="black"/>
<path d="M380.874 178.373L375.941 151.619C375.706 150.248 376.959 149.112 378.29 149.465L407.461 157.73C408.949 158.161 409.301 160.08 408.087 161.02L383.811 179.509C382.754 180.371 381.148 179.783 380.874 178.373Z" fill="white"/>
<path d="M388.998 299.582C407.975 290.34 415.915 267.553 406.734 248.686C397.553 229.819 374.726 222.016 355.75 231.258C336.774 240.499 328.833 263.286 338.015 282.153C347.196 301.02 370.022 308.823 388.998 299.582Z" fill="#B9FF66"/>
<path d="M372.181 304.347C368.108 304.347 363.958 303.72 359.925 302.349C350.058 299.059 342.07 292.165 337.45 282.842C332.83 273.559 332.125 263.022 335.453 253.151C342.344 232.821 364.506 221.735 384.906 228.512C394.773 231.802 402.761 238.696 407.381 248.019C412.002 257.303 412.706 267.84 409.378 277.711C403.818 294.006 388.508 304.347 372.181 304.347ZM372.572 228.277C356.949 228.277 342.305 238.148 337.019 253.738C333.848 263.178 334.513 273.245 338.938 282.098C343.362 290.99 350.998 297.61 360.434 300.743C379.933 307.206 401.116 296.63 407.694 277.202C410.866 267.761 410.2 257.694 405.776 248.842C401.351 239.95 393.716 233.33 384.28 230.196C380.403 228.865 376.449 228.277 372.572 228.277Z" fill="black"/>
<path d="M391.838 259.261C391.446 268.78 375.354 291.029 371.516 296.239C371.125 296.787 370.303 296.748 369.95 296.16C367.523 292.243 359.496 279.082 355.306 268.427C353.622 264.197 352.565 260.358 352.683 257.655C353.113 246.844 362.237 238.422 373.043 238.853C383.85 239.362 392.269 248.45 391.838 259.261Z" fill="black"/>
<path d="M378.593 264.827C382.095 261.324 382.095 255.644 378.593 252.141C375.091 248.638 369.414 248.638 365.913 252.141C362.411 255.644 362.411 261.324 365.913 264.827C369.414 268.33 375.091 268.33 378.593 264.827Z" fill="#B9FF66"/>
</svg>
